<?xml version="1.0" encoding="UTF-8"?>
<svg id="Layer_1" data-name="Layer 1" xmlns="http://www.w3.org/2000/svg" xmlns:xlink="http://www.w3.org/1999/xlink" viewBox="0 0 70 70">
  <defs>
    <style>
      .cls-1 {
        fill: url(#linear-gradient);
      }

      .cls-1, .cls-2, .cls-3, .cls-4, .cls-5 {
        stroke-width: 0px;
      }

      .cls-2 {
        fill: url(#linear-gradient-3);
      }

      .cls-2, .cls-3, .cls-4 {
        fill-rule: evenodd;
      }

      .cls-3 {
        fill: url(#linear-gradient-2);
      }

      .cls-4 {
        fill: #fafafa;
      }

      .cls-5 {
        fill: #0c0c4f;
      }
    </style>
    <linearGradient id="linear-gradient" x1="75.02" y1="904.79" x2="-5.09" y2="855.03" gradientTransform="translate(0 914.93) scale(1 -1)" gradientUnits="userSpaceOnUse">
      <stop offset="0" stop-color="#ec796b"/>
      <stop offset="1" stop-color="#e175b1"/>
    </linearGradient>
    <linearGradient id="linear-gradient-2" x1="40.15" y1="900.71" x2="23.72" y2="853" gradientTransform="translate(0 914.93) scale(1 -1)" gradientUnits="userSpaceOnUse">
      <stop offset="0" stop-color="#ec796b"/>
      <stop offset="1" stop-color="#e175b1"/>
    </linearGradient>
    <linearGradient id="linear-gradient-3" x1="57.32" y1="867.65" x2="48.19" y2="861.98" gradientTransform="translate(0 914.93) scale(1 -1)" gradientUnits="userSpaceOnUse">
      <stop offset="0" stop-color="#ec796b"/>
      <stop offset="1" stop-color="#e175b1"/>
    </linearGradient>
  </defs>
  <g>
    <path class="cls-5" d="m1,35c0,18.78,15.22,34,34,34s34-15.22,34-34S53.78,1,35,1,1,16.22,1,35Z"/>
    <path class="cls-1" d="m35,70C15.7,70,0,54.3,0,35S15.7,0,35,0s35,15.7,35,35-15.7,35-35,35Zm0-68C16.8,2,2,16.8,2,35s14.8,33,33,33,33-14.8,33-33S53.2,2,35,2Z"/>
  </g>
  <path class="cls-4" d="m19.56,26.75l.86-2.67c.18-.54.6-.97,1.15-1.13l2.68-.82c.37-.11.37-.64,0-.76l-2.67-.86c-.54-.18-.97-.6-1.13-1.15l-.82-2.68c-.11-.37-.64-.37-.76,0l-.86,2.67c-.17.54-.6.96-1.15,1.13l-2.68.82c-.37.11-.38.64,0,.76l2.67.86c.54.18.96.6,1.13,1.15l.82,2.68c.11.37.64.38.76,0Z"/>
  <path class="cls-3" d="m61.96,25.2c-1.11-1.24-2.83-1.93-4.51-2.22-1.69-.27-3.46-.25-5.13.05-3.38.57-6.45,1.97-9.12,3.7-1.39.85-2.58,1.83-3.8,2.82-.59.51-1.13,1.04-1.69,1.57l-1.54,1.53c-1.67,1.74-3.31,3.33-4.9,4.65-1.6,1.31-3.09,2.31-4.56,3-1.47.7-3.04,1.11-5.1,1.18-2.03.07-4.44-.3-7.01-.9-2.59-.6-5.3-1.46-8.34-2.2,1.06,2.94,2.65,5.54,4.7,7.91,2.07,2.33,4.66,4.46,7.98,5.86,3.28,1.43,7.39,1.94,11.24,1.17,3.86-.74,7.25-2.53,9.98-4.59,2.75-2.09,4.97-4.46,6.84-6.93.52-.68.79-1.07,1.16-1.6l1.03-1.53c.72-.95,1.37-2.03,2.08-2.96,1.39-1.96,2.77-3.93,4.37-5.74.8-.92,1.65-1.79,2.65-2.64.5-.41,1.04-.81,1.64-1.18.61-.39,1.25-.7,2.04-.93Z"/>
  <path class="cls-4" d="m61.96,25.2c-1.19-3-3.4-5.52-6.36-7.38-2.95-1.84-7.04-2.78-11.09-1.98-2,.39-3.94,1.13-5.65,2.13-1.7.99-3.22,2.18-4.53,3.46-.66.64-1.25,1.31-1.85,1.98l-1.53,1.96-2.37,3.15c-3.02,4.05-6.28,8.8-11.62,10.21-5.24,1.38-7.52.16-10.71-.35.59,1.51,1.31,2.98,2.29,4.27.96,1.32,2.1,2.55,3.52,3.61.72.51,1.47,1.01,2.31,1.44.84.41,1.74.77,2.7,1.05,1.91.53,4.07.71,6.15.43,2.09-.28,4.08-.94,5.82-1.82,1.76-.87,3.28-1.93,4.65-3.04,2.71-2.25,4.82-4.74,6.61-7.26.9-1.26,1.71-2.54,2.46-3.82l.89-1.53c.27-.45.55-.9.82-1.31,1.12-1.68,2.22-3.03,3.56-4.04,1.32-1.04,3.15-1.8,5.6-1.98,2.44-.18,5.25.15,8.34.85Z"/>
  <path class="cls-2" d="m48.77,50.11c0,2.2,1.79,3.99,3.99,3.99s3.98-1.79,3.98-3.99-1.78-3.99-3.98-3.99-3.99,1.79-3.99,3.99Z"/>
</svg>