<svg height="40" viewBox="0 0 178 41" fill="none" xmlns="http://www.w3.org/2000/svg" width="178"><path d="M0.0410469 20.8135C0.0410469 31.8593 8.99524 40.8135 20.041 40.8135C31.0868 40.8135 40.0416 31.8593 40.0416 20.8135C40.0416 9.76767 31.0868 0.813477 20.041 0.813477C8.99524 0.813477 0.0410469 9.76767 0.0410469 20.8135Z" fill="#0C0C4F" fill-rule="evenodd" clip-rule="evenodd"></path><path fill-rule="evenodd" clip-rule="evenodd" d="M11.2195 16.1014L11.7132 14.5761C11.8136 14.2659 12.0584 14.0245 12.3698 13.9293L13.9025 13.4579C14.1147 13.3931 14.1164 13.0938 13.906 13.0256L12.3801 12.5319C12.0705 12.4315 11.8291 12.1867 11.7333 11.8753L11.2625 10.3425C11.1977 10.1309 10.8984 10.1286 10.8302 10.3397L10.3364 11.865C10.2361 12.1746 9.99125 12.416 9.67988 12.5118L8.14713 12.9826C7.93496 13.0479 7.93267 13.3467 8.14369 13.4149L9.66956 13.9086C9.9792 14.009 10.2206 14.2544 10.3164 14.5658L10.7872 16.0979C10.8519 16.3101 11.1513 16.3124 11.2195 16.1014Z" fill="#FAFAFA"></path><path fill-rule="evenodd" clip-rule="evenodd" d="M35.4463 15.2133C34.8144 14.5067 33.8281 14.1088 32.8694 13.9457C31.9029 13.789 30.8897 13.8036 29.9356 13.973C28.0052 14.2996 26.2515 15.0989 24.722 16.085C23.9277 16.5689 23.2503 17.1289 22.5485 17.6991C22.2104 17.9875 21.9021 18.2947 21.581 18.5974L20.7037 19.4703C19.7505 20.4667 18.8109 21.3742 17.9019 22.1265C16.9891 22.8753 16.1358 23.444 15.2948 23.8411C14.4543 24.2403 13.5551 24.475 12.3829 24.5126C11.2211 24.5536 9.84648 24.3439 8.37612 23.9978C6.89787 23.6532 5.34555 23.162 3.61088 22.7394C4.21615 24.4186 5.12761 25.9025 6.29782 27.2589C7.48176 28.5918 8.96015 29.8067 10.8593 30.6057C12.7311 31.4224 15.0833 31.7155 17.2826 31.2732C19.4878 30.8488 21.423 29.8284 22.9872 28.6482C24.5555 27.456 25.8242 26.0979 26.8939 24.6861C27.1892 24.296 27.3453 24.0777 27.559 23.7728L28.1495 22.898C28.56 22.3568 28.9336 21.7407 29.3399 21.2046C30.1363 20.0817 30.9215 18.9602 31.834 17.9269C32.2933 17.4028 32.7774 16.9015 33.3492 16.4198C33.6343 16.1846 33.9424 15.9545 34.2837 15.7472C34.63 15.5236 34.9958 15.3486 35.4463 15.2133Z" fill="url(#paint0_linear_789_81789)"></path><path fill-rule="evenodd" clip-rule="evenodd" d="M35.4462 15.2134C34.7673 13.5004 33.5054 12.0585 31.8115 10.9945C30.1279 9.94223 27.7895 9.4052 25.4724 9.86299C24.3277 10.0844 23.2187 10.5106 22.2454 11.0782C21.2766 11.6436 20.4084 12.3241 19.6569 13.0543C19.2817 13.4205 18.9411 13.8026 18.6028 14.1869L17.7258 15.3049L16.3714 17.1046C14.6447 19.4202 12.7853 22.1339 9.73396 22.938C6.73838 23.7274 5.43914 23.0283 3.61086 22.7395C3.94515 23.6026 4.35925 24.4407 4.92063 25.1781C5.47155 25.9304 6.12227 26.637 6.9313 27.2426C7.34015 27.5335 7.7718 27.8206 8.25121 28.0641C8.72843 28.2994 9.24309 28.5064 9.79242 28.6623C10.8851 28.9618 12.1152 29.0667 13.3063 28.9056C14.498 28.7466 15.637 28.369 16.6326 27.8674C17.6355 27.3706 18.5092 26.7656 19.2893 26.127C20.8401 24.8392 22.0464 23.4162 23.0653 21.9778C23.5778 21.2587 24.043 20.5259 24.4733 19.793L24.9797 18.9205C25.1345 18.6654 25.2911 18.4088 25.4502 18.1698C26.0918 17.2095 26.7194 16.4395 27.4817 15.8616C28.2335 15.2687 29.2802 14.8307 30.679 14.7289C32.072 14.626 33.6801 14.8162 35.4462 15.2134Z" fill="#FAFAFA"></path><path fill-rule="evenodd" clip-rule="evenodd" d="M27.9102 29.4455C27.9102 30.7036 28.9306 31.724 30.1887 31.724C31.4468 31.724 32.4659 30.7036 32.4659 29.4455C32.4659 28.1874 31.4468 27.167 30.1887 27.167C28.9306 27.167 27.9102 28.1874 27.9102 29.4455Z" fill="#EC796B"></path><path d="M174.837 15.2207V12.92C174.837 12.8288 174.763 12.7549 174.672 12.7549H161.563C161.472 12.7549 161.398 12.8288 161.398 12.92V15.2207H166.726V30.1045H169.509V15.2207H174.837Z" fill="#0C0C4F"></path><path d="M147.697 12.7549C147.606 12.7549 147.532 12.8288 147.532 12.92V29.9393C147.532 30.0305 147.606 30.1045 147.697 30.1045H158.729C158.82 30.1045 158.894 30.0305 158.894 29.9393V27.6631H150.315V22.2105H157.403V19.8179H150.315V15.1963H158.283V12.92C158.283 12.8288 158.209 12.7549 158.118 12.7549H147.697Z" fill="#0C0C4F"></path><path d="M141.3 30.0035L141.36 30.1045H143.498C143.59 30.1045 143.664 30.0305 143.664 29.9393V12.92C143.664 12.8288 143.59 12.7549 143.498 12.7549H140.929V24.7704C140.483 24.0602 139.965 23.2784 139.375 22.4251C138.624 21.3147 137.816 20.1882 136.951 19.0457C136.102 17.8869 135.237 16.7688 134.355 15.6914C133.489 14.5967 132.671 13.6394 131.901 12.8199L131.84 12.7549H129.827C129.736 12.7549 129.662 12.8288 129.662 12.92V29.9393C129.662 30.0305 129.736 30.1045 129.827 30.1045H132.397V17.2327C132.748 17.6476 133.122 18.1074 133.519 18.6123C134.055 19.2944 134.607 20.0256 135.176 20.8059L135.177 20.8067L135.178 20.8076C135.746 21.5711 136.315 22.3673 136.884 23.1962L136.884 23.1973L136.885 23.1984C137.471 24.0277 138.032 24.8487 138.568 25.6615L138.569 25.6623L138.569 25.6631C139.105 26.4591 139.6 27.2303 140.055 27.9769L140.056 27.9783L140.056 27.9796C140.528 28.728 140.943 29.4026 141.3 30.0035Z" fill="#0C0C4F"></path><path d="M126.3 13.1004L126.363 13.0313C126.46 12.9253 126.385 12.7549 126.241 12.7549H123.194L123.132 12.8265C122.727 13.2958 122.225 13.8472 121.623 14.4811L121.623 14.4812C121.037 15.0996 120.411 15.7505 119.743 16.4342C119.076 17.1176 118.401 17.8011 117.717 18.4845C117.171 19.0182 116.661 19.51 116.187 19.9601V12.7549H113.569C113.478 12.7549 113.404 12.8288 113.404 12.92V29.9393C113.404 30.0305 113.478 30.1045 113.569 30.1045H116.187V22.2337C116.762 22.61 117.349 23.0503 117.95 23.5551L117.95 23.5558L117.951 23.5565C118.678 24.1544 119.39 24.8091 120.086 25.521L120.087 25.5227L120.089 25.5243C120.8 26.2194 121.471 26.9549 122.101 27.7309L122.102 27.7317L122.103 27.7325C122.733 28.4923 123.29 29.2512 123.774 30.0091L123.835 30.1045H126.805C126.932 30.1045 127.012 29.9672 126.949 29.857L126.913 29.7952C126.467 29.0193 125.908 28.2048 125.235 27.3517C124.58 26.4998 123.876 25.6645 123.122 24.8459C122.369 24.0271 121.599 23.2572 120.813 22.5361C120.1 21.8831 119.419 21.3223 118.771 20.8547C119.323 20.3161 119.908 19.7376 120.526 19.1195C121.211 18.4346 121.896 17.7416 122.58 17.0404C123.282 16.3229 123.95 15.6298 124.586 14.961L124.587 14.9601L124.588 14.9592C125.224 14.2746 125.795 13.655 126.3 13.1004Z" fill="#0C0C4F"></path><path fill-rule="evenodd" clip-rule="evenodd" d="M97.6027 12.6244C97.5115 12.6244 97.4376 12.6984 97.4376 12.7896V29.9493C97.4376 30.0405 97.5116 30.1145 97.6028 30.1145H99.9615V23.8054H103.407C103.795 24.2695 104.173 24.7551 104.541 25.2622L104.543 25.2642L104.544 25.266C105.147 26.0568 105.705 26.8816 106.216 27.7407L106.217 27.7417L106.217 27.7426C106.681 28.5028 107.085 29.2537 107.43 29.9952L107.486 30.1145H110.277C110.397 30.1145 110.477 29.9913 110.427 29.8824C110.106 29.179 109.758 28.4903 109.372 27.8192C108.847 26.8814 108.271 25.953 107.644 25.034C107.286 24.5087 106.92 23.9984 106.546 23.5032C107.588 23.1849 108.411 22.6093 109.007 21.7739L109.008 21.7732C109.723 20.7621 110.077 19.573 110.077 18.2148C110.077 17.2815 109.915 16.4275 109.587 15.6559C109.257 14.873 108.761 14.2238 108.1 13.7116C107.444 13.1966 106.636 12.869 105.684 12.7221C105.462 12.6811 105.232 12.6566 104.996 12.6483C104.765 12.6324 104.563 12.6243 104.392 12.6243C103.668 12.6243 102.945 12.6242 102.221 12.6242L102.221 12.6242C100.681 12.624 99.1421 12.6239 97.6027 12.6244ZM107.506 18.2148C107.506 18.6656 107.431 19.1092 107.28 19.5464C107.133 19.9663 106.898 20.3344 106.572 20.6524C106.264 20.9536 105.857 21.1672 105.342 21.2867C105.179 21.3238 105.003 21.3501 104.814 21.3652L104.814 21.3652L104.814 21.3652C104.628 21.3807 104.464 21.3882 104.321 21.3882H99.9615V15.0414H104.321C104.464 15.0414 104.628 15.049 104.814 15.0644L104.818 15.0648L104.822 15.065C105.006 15.0723 105.176 15.0979 105.334 15.1409L105.339 15.1423L105.344 15.1434C105.857 15.255 106.263 15.4678 106.57 15.7755L106.571 15.7764L106.572 15.7772C106.897 16.0948 107.133 16.4665 107.28 16.8946L107.28 16.8951L107.281 16.8957C107.431 17.3245 107.506 17.7639 107.506 18.2148Z" fill="#0C0C4F"></path><path fill-rule="evenodd" clip-rule="evenodd" d="M91.2448 27.814L91.2451 27.8146L91.2453 27.8153C91.4903 28.5177 91.7516 29.2362 92.0292 29.971L92.0796 30.1045H94.8719C94.9865 30.1045 95.0662 29.9906 95.027 29.8829C94.4171 28.2071 93.8014 26.5335 93.1733 24.8645C92.6026 23.3318 92.04 21.8803 91.4854 20.5101C90.9471 19.1399 90.4086 17.8346 89.8701 16.5943C89.3298 15.3337 88.7614 14.0856 88.1691 12.8486C88.1416 12.7913 88.0837 12.7549 88.0202 12.7549H85.7931C85.7296 12.7549 85.6717 12.7913 85.6443 12.8486C85.052 14.0856 84.4835 15.3337 83.9432 16.5944C83.4049 17.8342 82.8584 19.1391 82.3039 20.5091L82.3035 20.51L82.3032 20.511C81.765 21.8808 81.2107 23.3319 80.6401 24.8644C80.0119 26.5334 79.3962 28.2071 78.7863 29.8829C78.7471 29.9906 78.8269 30.1045 78.9415 30.1045H81.6145L81.6146 30.1043H81.6669L81.7281 30.0386C82.3729 29.3463 83.0936 28.6669 83.8905 28.0006L83.8914 27.9999L83.8922 27.9992C84.6922 27.3161 85.5262 26.6826 86.3944 26.0987L86.3964 26.0973L86.3983 26.096C87.2535 25.4917 88.1142 24.9495 88.9803 24.4691L88.9813 24.4686L88.9823 24.468C89.2942 24.2905 89.6013 24.1251 89.9037 23.9718L90.4879 25.6408L90.4883 25.6421L90.4884 25.6422C90.7487 26.3743 91.0008 27.0982 91.2448 27.814ZM88.241 19.5842L88.2416 19.5856L88.2421 19.587C88.4773 20.1824 88.7126 20.7877 88.9478 21.4031C88.9301 21.4108 88.9122 21.4189 88.894 21.4272C88.0663 21.8041 87.1768 22.2914 86.2255 22.888C85.3149 23.4592 84.4114 24.0797 83.5153 24.7496L83.8946 23.6658C84.3967 22.2573 84.8987 20.8972 85.4007 19.5856C85.8623 18.4027 86.343 17.265 86.8428 16.1723C87.328 17.2645 87.794 18.4018 88.241 19.5842Z" fill="#0C0C4F"></path><path d="M79.4677 15.2207V12.92C79.4677 12.8288 79.3937 12.7549 79.3025 12.7549H66.1936C66.1024 12.7549 66.0284 12.8288 66.0284 12.92V15.2207H71.3563V29.9393C71.3563 30.0305 71.4302 30.1045 71.5215 30.1045H73.9747C74.0659 30.1045 74.1398 30.0305 74.1398 29.9393V15.2207H79.4677Z" fill="#0C0C4F"></path><path d="M54.0002 29.8935L53.9997 29.8933C52.99 29.4629 52.1502 28.8485 51.4844 28.0496L51.4834 28.0484L51.4829 28.0478C50.8238 27.2384 50.3958 26.2845 50.1969 25.1909C50.187 25.1362 50.1995 25.0798 50.2317 25.0345C50.2639 24.9891 50.313 24.9587 50.3679 24.95L52.5883 24.6001C52.6934 24.5835 52.7939 24.6495 52.8204 24.7526C53.0902 25.801 53.6456 26.6148 54.4878 27.2046C55.3423 27.7894 56.3501 28.085 57.5198 28.085C58.2785 28.085 58.9566 27.9678 59.5568 27.737C60.164 27.4987 60.6353 27.1643 60.9794 26.7379C61.3178 26.3185 61.4887 25.822 61.4887 25.2384C61.4887 24.8761 61.4245 24.5796 61.3053 24.3412L61.3022 24.3347C61.1862 24.0808 61.0241 23.8688 60.8153 23.696L60.8095 23.6909C60.5999 23.5038 60.3593 23.3456 60.0865 23.2168C59.8074 23.085 59.5165 22.9764 59.2135 22.8909L59.2108 22.8901L54.7815 21.5746C54.2885 21.4267 53.8118 21.2418 53.3514 21.0198L53.3501 21.0192L53.3487 21.0185C52.8813 20.7848 52.4626 20.4961 52.0936 20.1522L52.0924 20.1511L52.0918 20.1505C51.7176 19.7934 51.4208 19.3688 51.2012 18.8789L51.2007 18.8777C50.9775 18.3713 50.8694 17.7826 50.8694 17.1171C50.8694 16.0501 51.1452 15.1288 51.7058 14.3643L51.706 14.364C52.2692 13.5991 53.0283 13.0179 53.9764 12.6187C54.923 12.2202 55.9851 12.0272 57.1592 12.0354C58.3494 12.0436 59.4197 12.2571 60.3666 12.6805C61.3206 13.0954 62.112 13.6946 62.737 14.4777C63.3714 15.2625 63.7945 16.199 64.0094 17.282C64.0203 17.3366 64.0086 17.3931 63.9772 17.439C63.9458 17.4848 63.8972 17.516 63.8424 17.5256L61.5617 17.9238C61.5076 17.9333 61.452 17.9208 61.4071 17.8891C61.3623 17.8575 61.3319 17.8093 61.3227 17.7551C61.2075 17.0794 60.9517 16.5062 60.5585 16.0297L60.5562 16.0269C60.1673 15.5389 59.6795 15.165 59.0897 14.9045L59.0876 14.9036C58.4965 14.6349 57.8454 14.4955 57.1314 14.4877L57.1313 14.4877C56.4469 14.4799 55.8352 14.5888 55.293 14.8103C54.7493 15.0324 54.3249 15.3389 54.0119 15.7263L54.0107 15.7278C53.7037 16.1006 53.551 16.5287 53.551 17.0205C53.551 17.5089 53.6901 17.8857 53.9536 18.1705C54.2381 18.4697 54.5878 18.7112 55.0059 18.8939C55.4491 19.0759 55.8794 19.2258 56.2969 19.344L56.2979 19.3443L59.6032 20.2973C59.9886 20.4039 60.4286 20.5507 60.9227 20.737C61.4399 20.9289 61.9386 21.1993 62.4187 21.5469C62.9128 21.8964 63.3186 22.3632 63.6375 22.9419C63.965 23.5283 64.122 24.2574 64.122 25.1178C64.122 25.9825 63.9473 26.7597 63.5924 27.4444C63.2479 28.1247 62.7644 28.6961 62.1441 29.1571L62.1427 29.1582C61.5259 29.6082 60.8118 29.948 60.0031 30.1791C59.1942 30.4184 58.3299 30.5373 57.4112 30.5373C56.1567 30.5373 55.0186 30.3241 54.0002 29.8935Z" fill="#0C0C4F"></path><defs><linearGradient id="paint0_linear_789_81789" x1="35.2759" y1="14.6122" x2="-16.7508" y2="41.6807" gradientUnits="userSpaceOnUse"><stop stop-color="#EC796B"></stop><stop offset="1" stop-color="#D672EF"></stop></linearGradient></defs></svg>